<?xml version="1.0" encoding="UTF-8"?>
<svg version="1.1" xmlns="http://www.w3.org/2000/svg" width="500" height="500">
<path d="M0 0 C2.52309201 0.78618084 3.73807295 0.7074856 6.15625 -0.328125 C7.45285434 -2.81846886 7.45285434 -2.81846886 8.15625 -5.328125 C9.80625 -5.328125 11.45625 -5.328125 13.15625 -5.328125 C13.15625 8.531875 13.15625 22.391875 13.15625 36.671875 C11.67125 37.166875 11.67125 37.166875 10.15625 37.671875 C9.49625 37.341875 8.83625 37.011875 8.15625 36.671875 C7.64583671 34.68922916 7.22329168 32.68367876 6.84375 30.671875 C4.88513607 21.80963178 1.73842003 14.99043949 -5.41015625 9.1796875 C-12.32838818 4.89327093 -21.69625197 2.14421912 -29.84375 3.671875 C-35.17704853 5.45281576 -38.73824343 7.89417259 -41.84375 12.671875 C-42.25625 13.290625 -42.66875 13.909375 -43.09375 14.546875 C-44.47898666 18.4717122 -44.63858422 21.91470018 -42.8984375 25.76171875 C-39.02898841 32.29597712 -33.59748688 35.98587267 -27.28125 40.046875 C-26.66483643 40.44406738 -26.04842285 40.84125977 -25.41333008 41.25048828 C-21.71365422 43.59509181 -17.99289215 45.66454779 -14.03125 47.546875 C-0.244444 54.22746153 15.2238953 62.67885525 20.53125 77.9375 C22.57533239 86.88036044 21.9345801 95.75496346 17.15625 103.671875 C9.67418307 113.69696271 1.55510032 119.57835184 -10.84375 121.671875 C-19.6900465 122.46717013 -27.38876301 121.18211337 -35.84375 118.671875 C-37.13100389 118.30680299 -38.41879002 117.94360377 -39.70703125 117.58203125 C-43.09095847 116.62904988 -46.4685775 115.65546817 -49.84375 114.671875 C-52.13488732 116.8625789 -53.5413167 118.76644688 -54.84375 121.671875 C-56.16375 121.341875 -57.48375 121.011875 -58.84375 120.671875 C-59.98444132 107.00394859 -59.95032507 93.37906911 -59.84375 79.671875 C-57.36875 79.176875 -57.36875 79.176875 -54.84375 78.671875 C-52.77191388 81.77962918 -52.28419291 83.75171602 -51.53125 87.359375 C-49.39567105 96.16731009 -45.46176445 102.60319609 -37.84375 107.671875 C-29.74433022 112.50152902 -20.97629033 112.61100297 -11.84375 111.671875 C-5.11139482 109.89125208 -1.20381496 105.64034039 2.296875 99.75390625 C4.03270775 95.54845691 2.98938371 90.90865791 1.4375 86.7421875 C-3.27781578 77.59610087 -12.92936476 73.09701222 -21.53125 68.296875 C-54.53612819 49.78803115 -54.53612819 49.78803115 -59.453125 34.81640625 C-60.97252478 26.47490143 -60.78040562 18.32053588 -56.453125 10.91796875 C-50.12454083 2.08560007 -41.89655906 -4.10436914 -31.08203125 -6.046875 C-20.02952641 -7.43567142 -10.03412586 -4.6156979 0 0 Z " fill="#E0C19F" transform="translate(301.84375,196.328125)"/>
<path d="M0 0 C0.92385864 1.73251343 0.92385864 1.73251343 1.87939453 4.01318359 C2.239617 4.86431732 2.59983948 5.71545105 2.97097778 6.59237671 C3.35438324 7.51837677 3.7377887 8.44437683 4.1328125 9.3984375 C4.52951141 10.34433746 4.92621033 11.29023743 5.33493042 12.26480103 C6.17365029 14.26924837 7.00901582 16.27510202 7.84130859 18.28222656 C9.1182283 21.35868507 10.40788369 24.42956882 11.69921875 27.5 C12.51118571 29.44499163 13.32240856 31.3902941 14.1328125 33.3359375 C14.52026642 34.2578891 14.90772034 35.1798407 15.30691528 36.12973022 C15.83779251 37.4158873 15.83779251 37.4158873 16.37939453 38.72802734 C16.69313019 39.48223969 17.00686584 40.23645203 17.33010864 41.01351929 C18 43 18 43 18 46 C16.171875 47.46484375 16.171875 47.46484375 13.75 48.9375 C10.41079423 51.03957459 7.74228488 53.14802373 5 56 C4.34 56 3.68 56 3 56 C2.73783691 55.41508789 2.47567383 54.83017578 2.20556641 54.22753906 C1.01292458 51.5679636 -0.18102418 48.90897683 -1.375 46.25 C-1.7875 45.32960937 -2.2 44.40921875 -2.625 43.4609375 C-3.02460938 42.57148438 -3.42421875 41.68203125 -3.8359375 40.765625 C-4.20251465 39.94868164 -4.5690918 39.13173828 -4.94677734 38.29003906 C-5.92204457 36.16949975 -6.94291127 34.08075174 -8 32 C-12.19500135 40.74401126 -16.02243879 49.63725934 -19.8125 58.5625 C-20.30468018 59.71669434 -20.79686035 60.87088867 -21.30395508 62.06005859 C-21.76697021 63.15527832 -22.22998535 64.25049805 -22.70703125 65.37890625 C-23.1244458 66.3644751 -23.54186035 67.35004395 -23.97192383 68.36547852 C-24.83571116 70.57899765 -25.49863487 72.68260183 -26 75 C-25.24976563 74.98839844 -24.49953125 74.97679687 -23.7265625 74.96484375 C-17.07662583 74.9062171 -10.59995127 75.18230692 -4 76 C-3.505 79.465 -3.505 79.465 -3 83 C-16.365 83.495 -16.365 83.495 -30 84 C-32.360947 88.98917101 -34.70318506 93.98163521 -37 99 C-37.37382812 99.81210938 -37.74765625 100.62421875 -38.1328125 101.4609375 C-40.19720034 106.37137459 -40.32639678 110.77765146 -40 116 C-36.03302114 117.80317221 -32.3177458 118.49202991 -28 119 C-28 120.65 -28 122.3 -28 124 C-40.87 124 -53.74 124 -67 124 C-67.33 122.68 -67.66 121.36 -68 120 C-66.98679688 119.65388672 -66.98679688 119.65388672 -65.953125 119.30078125 C-65.06109375 118.97464844 -64.1690625 118.64851563 -63.25 118.3125 C-62.36828125 117.99925781 -61.4865625 117.68601562 -60.578125 117.36328125 C-49.88948442 111.71125767 -44.95039889 92.269151 -40.63574219 81.76977539 C-38.02549357 75.42294485 -35.32584186 69.16233368 -32.3515625 62.9765625 C-30.81581444 59.59436591 -29.44321133 56.16477106 -28.07519531 52.71191406 C-19.07216319 30.0039938 -19.07216319 30.0039938 -14.24609375 19.80078125 C-13.18663939 17.41949981 -12.22357779 15.03573993 -11.28515625 12.60546875 C-10.97980957 11.82598877 -10.67446289 11.04650879 -10.35986328 10.2434082 C-9.75528461 8.69099483 -9.16331432 7.13359879 -8.58544922 5.57104492 C-7.74609375 3.4296875 -7.74609375 3.4296875 -6 0 C-3.40717843 -1.01517881 -2.52759326 -1.26379663 0 0 Z " fill="#E0C2A0" transform="translate(242,145)"/>
<path d="M0 0 C1.65 0 3.3 0 5 0 C5 13.86 5 27.72 5 42 C3.515 42.495 3.515 42.495 2 43 C1.34 42.67 0.68 42.34 0 42 C-0.51041329 40.01735416 -0.93295832 38.01180376 -1.3125 36 C-3.43186122 26.41041508 -6.73025995 20.45753734 -14.42578125 14.3125 C-14.94527344 13.879375 -15.46476562 13.44625 -16 13 C-16 12.67 -16 12.34 -16 12 C-13.6875 11.6875 -13.6875 11.6875 -11 12 C-9.4375 14.1875 -9.4375 14.1875 -8 17 C-7.319375 17.845625 -6.63875 18.69125 -5.9375 19.5625 C-4.25445328 21.67988136 -3.19675598 23.60648804 -2 26 C-1.34 26.33 -0.68 26.66 0 27 C0.33 25.02 0.66 23.04 1 21 C1.66 21 2.32 21 3 21 C3 15.72 3 10.44 3 5 C1.02 6.32 -0.96 7.64 -3 9 C-7.44811726 8.88294428 -11.88268307 6.60505575 -16 5 C-16 4.34 -16 3.68 -16 3 C-15.16855469 3.25136719 -14.33710938 3.50273437 -13.48046875 3.76171875 C-12.39378906 4.06722656 -11.30710937 4.37273437 -10.1875 4.6875 C-8.56908203 5.15736328 -8.56908203 5.15736328 -6.91796875 5.63671875 C-4.04236874 6.31936152 -4.04236874 6.31936152 -2.17578125 4.76953125 C-0.82029203 2.89694472 -0.82029203 2.89694472 0 0 Z " fill="#D7C6AD" transform="translate(310,191)"/>
<path d="M0 0 C0.99 0 1.98 0 3 0 C3 0.66 3 1.32 3 2 C4.0828125 2.185625 4.0828125 2.185625 5.1875 2.375 C8 3 8 3 10.5 4.125 C13.51101183 5.17885414 14.97863055 4.92965214 18 4 C19.32 3.34 20.64 2.68 22 2 C22 7.28 22 12.56 22 18 C21.34 18 20.68 18 20 18 C19.67 19.98 19.34 21.96 19 24 C15.50201151 22.83400384 15.25835936 22.20212888 13.5 19.125 C12.23653368 16.93013223 11.18633493 15.17666661 9.34375 13.4296875 C8 12 8 12 8 9 C7.236875 9.061875 6.47375 9.12375 5.6875 9.1875 C3 9 3 9 1.1875 7.875 C-0.49106106 5.22464043 -0.20450238 3.06753576 0 0 Z " fill="#E3C09B" transform="translate(291,194)"/>
<path d="M0 0 C2.27209221 2.07380778 3.57866574 3.85857438 4.75390625 6.6953125 C5.05031006 7.4076001 5.34671387 8.1198877 5.65209961 8.85375977 C5.95253174 9.60326904 6.25296387 10.35277832 6.5625 11.125 C7.02765015 12.26763306 7.02765015 12.26763306 7.50219727 13.43334961 C9.54749957 18.56823574 11.10495827 23.53030056 12 29 C-1.88906543 20.86921258 -1.88906543 20.86921258 -5 15 C-6.08947075 10.59064594 -5.29919228 7.53082501 -3.0625 3.5625 C-1 1 -1 1 0 0 Z " fill="#DEC1A1" transform="translate(266,206)"/>
<path d="M0 0 C1.98498051 0.92512666 3.96286018 1.86550237 5.9375 2.8125 C7.03964844 3.33457031 8.14179688 3.85664063 9.27734375 4.39453125 C12 6 12 6 13 9 C5.08 9 -2.84 9 -11 9 C-11.33 7.68 -11.66 6.36 -12 5 C-10.06953913 3.06953913 -6.74014774 3.09643271 -4.12890625 2.59765625 C-1.8067342 2.13317957 -1.8067342 2.13317957 0 0 Z " fill="#CEC8B3" transform="translate(266,260)"/>
<path d="M0 0 C1.98 0 3.96 0 6 0 C6.495 3.465 6.495 3.465 7 7 C-6.365 7.495 -6.365 7.495 -20 8 C-21.11375 10.371875 -22.2275 12.74375 -23.375 15.1875 C-23.72224121 15.92508545 -24.06948242 16.6626709 -24.42724609 17.42260742 C-26.06026121 20.91149286 -27.61675522 24.40216635 -29 28 C-29.66 27.67 -30.32 27.34 -31 27 C-31 26.34 -31 25.68 -31 25 C-30.34 25 -29.68 25 -29 25 C-29.20625 23.9275 -29.4125 22.855 -29.625 21.75 C-29.9876191 18.12380904 -29.98362069 16.91708924 -28 14 C-27.01 14 -26.02 14 -25 14 C-24.7834375 13.1028125 -24.7834375 13.1028125 -24.5625 12.1875 C-24.1127561 10.43849596 -23.57107659 8.71322977 -23 7 C-20.33821779 5.6691089 -18.31260604 5.88731007 -15.3359375 5.90234375 C-14.21445313 5.90556641 -13.09296875 5.90878906 -11.9375 5.91210938 C-10.761875 5.92048828 -9.58625 5.92886719 -8.375 5.9375 C-7.19164062 5.94201172 -6.00828125 5.94652344 -4.7890625 5.95117188 C-1.85932493 5.96298533 1.07031272 5.97945742 4 6 C3.0022242 3.00667261 2.2477975 2.05233685 0 0 Z " fill="#D2C6B0" transform="translate(232,221)"/>
<path d="M0 0 C-0.33 1.65 -0.66 3.3 -1 5 C-3 5.66666667 -5 6.33333333 -7 7 C-7 7.33 -7 7.66 -7 8 C-9.31 8 -11.62 8 -14 8 C-15 3.25 -15 3.25 -15 1 C-9.92928099 0.28832014 -5.11791642 -0.10662326 0 0 Z " fill="#E1C09C" transform="translate(279,192)"/>
<path d="M0 0 C5.94 0.99 5.94 0.99 12 2 C12 3.65 12 5.3 12 7 C-0.87 7 -13.74 7 -27 7 C-27.33 5.68 -27.66 4.36 -28 3 C-27.01 2.67 -26.02 2.34 -25 2 C-25 3.32 -25 4.64 -25 6 C-13.45 6 -1.9 6 10 6 C10 5.01 10 4.02 10 3 C8.906875 3.020625 7.81375 3.04125 6.6875 3.0625 C3 3 3 3 0 2 C0 1.34 0 0.68 0 0 Z " fill="#CDC6B3" transform="translate(202,262)"/>
<path d="M0 0 C7.57984986 3.67507872 12.51301118 10.49246033 15.35546875 18.2578125 C16.50528957 23.14977746 16.30853155 28.01207328 16 33 C15.67 33 15.34 33 15 33 C14.96261719 32.3709375 14.92523438 31.741875 14.88671875 31.09375 C14.43465245 25.20802404 13.53262649 20.35747912 11 15 C10.01 14.67 9.02 14.34 8 14 C8.33 13.01 8.66 12.02 9 11 C7.27773504 7.75150023 7.27773504 7.75150023 4 7 C4 6.01 4 5.02 4 4 C2.68 4 1.36 4 0 4 C0 2.68 0 1.36 0 0 Z " fill="#D7C7AF" transform="translate(307,256)"/>
<path d="M0 0 C1.12845355 3.38536065 0.89409623 3.93409624 -0.3125 7.125 C-1.94590141 11.68803422 -3.04619888 16.2534368 -4 21 C-3.34 21.33 -2.68 21.66 -2 22 C-1.59802999 24.32249342 -1.27313343 26.65885633 -1 29 C-0.68033861 30.66934283 -0.35268934 32.3373217 0 34 C-5.16877733 27.89144498 -5.47607989 21.28802888 -5.40234375 13.5703125 C-4.81390894 8.34866766 -2.82169157 4.37362193 0 0 Z " fill="#D2C4AC" transform="translate(247,205)"/>
<path d="M0 0 C0.99 0.33 1.98 0.66 3 1 C2.85769192 2.41702513 2.71099254 3.8336096 2.5625 5.25 C2.48128906 6.03890625 2.40007812 6.8278125 2.31640625 7.640625 C2.02365007 9.82364639 1.57935581 11.8773182 1 14 C-1.475 13.01 -1.475 13.01 -4 12 C-3.125 8.125 -3.125 8.125 -2 7 C-1.95919217 5.00041636 -1.95745644 2.99954746 -2 1 C-1.34 0.67 -0.68 0.34 0 0 Z " fill="#E5C199" transform="translate(219,189)"/>
<path d="M0 0 C0.37125 0.515625 0.7425 1.03125 1.125 1.5625 C1.74375 2.366875 2.3625 3.17125 3 4 C3.41378906 4.54398438 3.82757813 5.08796875 4.25390625 5.6484375 C7.93212269 10.23869126 11.86110046 13.16969238 17 16 C14.07175348 16.97608217 12.04386724 17.08226668 9 17 C9.33 16.01 9.66 15.02 10 14 C8.3603125 13.4740625 8.3603125 13.4740625 6.6875 12.9375 C3.33082581 11.51057373 2.9984937 10.99732753 1.0625 7.5625 C0 4 0 4 0 0 Z " fill="#D5C4AA" transform="translate(257,220)"/>
<path d="M0 0 C0.66 0 1.32 0 2 0 C2.66 0.66 3.32 1.32 4 2 C6.06874034 2.6425235 6.06874034 2.6425235 8 3 C1.71456473 6.43796251 -3.93463111 8.74646681 -11 10 C-11.33 9.34 -11.66 8.68 -12 8 C-10.7625 7.71125 -9.525 7.4225 -8.25 7.125 C-5.27551258 6.38665206 -2.666144 5.55525067 0 4 C0 3.01 0 2.02 0 1 C0 0.67 0 0.34 0 0 Z " fill="#DEC5A9" transform="translate(301,308)"/>
<path d="M0 0 C6.52307692 0.61538462 6.52307692 0.61538462 8.9375 2.5625 C9.288125 3.036875 9.63875 3.51125 10 4 C4.96266834 5.5111995 0.11828973 4.64599773 -5 4 C-5 3.34 -5 2.68 -5 2 C-3.35 2 -1.7 2 0 2 C0 1.34 0 0.68 0 0 Z " fill="#E2C19C" transform="translate(264,263)"/>
<path d="M0 0 C0.99 0.33 1.98 0.66 3 1 C3.33 3.31 3.66 5.62 4 8 C3.030625 8.12375 2.06125 8.2475 1.0625 8.375 C0.051875 8.58125 -0.95875 8.7875 -2 9 C-2.33 9.66 -2.66 10.32 -3 11 C-3.66 10.67 -4.32 10.34 -5 10 C-4.45275433 6.1692803 -2.71844729 4.63075544 0 2 C0 1.34 0 0.68 0 0 Z " fill="#E4BF9A" transform="translate(212,212)"/>
<path d="M0 0 C1.32 0.33 2.64 0.66 4 1 C3.01 1 2.02 1 1 1 C0.896875 1.78375 0.79375 2.5675 0.6875 3.375 C0 6 0 6 -3 8 C-7.54749853 7.61021441 -11.78167704 5.64443099 -16 4 C-16 3.34 -16 2.68 -16 2 C-15.16855469 2.25136719 -14.33710938 2.50273437 -13.48046875 2.76171875 C-12.39378906 3.06722656 -11.30710937 3.37273437 -10.1875 3.6875 C-8.56908203 4.15736328 -8.56908203 4.15736328 -6.91796875 4.63671875 C-4.03002925 5.32943512 -4.03002925 5.32943512 -2.17578125 3.70703125 C-0.9430949 2.00207407 -0.9430949 2.00207407 0 0 Z " fill="#DCC9B3" transform="translate(310,192)"/>
<path d="M0 0 C0.33 0 0.66 0 1 0 C0.53444296 6.40140935 -1.14711836 11.26769829 -4 17 C-4.66 16.67 -5.32 16.34 -6 16 C-6 15.34 -6 14.68 -6 14 C-5.34 14 -4.68 14 -4 14 C-4.20625 12.9275 -4.4125 11.855 -4.625 10.75 C-4.9876191 7.12380904 -4.98362069 5.91708924 -3 3 C-2.01 3 -1.02 3 0 3 C0 2.01 0 1.02 0 0 Z " fill="#DBC4AA" transform="translate(207,232)"/>
<path d="M0 0 C0.33 4.62 0.66 9.24 1 14 C-0.32 14 -1.64 14 -3 14 C-3 9.71 -3 5.42 -3 1 C-1 0 -1 0 0 0 Z " fill="#E1C0A0" transform="translate(313,218)"/>
<path d="M0 0 C0.72693904 1.97888961 1.39816251 3.97954558 2 6 C-0.16874252 5.49396008 -1.99967627 5.00016187 -4 4 C-4.33 4.99 -4.66 5.98 -5 7 C-5.99 6.67 -6.98 6.34 -8 6 C-7.25 3.0625 -7.25 3.0625 -6 0 C-3.40948545 -1.21430369 -2.56984526 -1.28492263 0 0 Z " fill="#D9C6AC" transform="translate(242,145)"/>
<path d="M0 0 C2.3125 -0.3125 2.3125 -0.3125 5 0 C6.5625 2.1875 6.5625 2.1875 8 5 C8.66 5.825 9.32 6.65 10 7.5 C13.34788054 11.68485067 15.47138931 14.50045803 15 20 C13.39423636 17.59135455 12.16123179 15.32246359 10.875 12.75 C8.45662581 8.3054204 5.50307099 5.44977203 1.57421875 2.3125 C1.05472656 1.879375 0.53523438 1.44625 0 1 C0 0.67 0 0.34 0 0 Z " fill="#D1C5AC" transform="translate(294,203)"/>
<path d="M0 0 C0.99 0 1.98 0 3 0 C3.66 1.32 4.32 2.64 5 4 C3.37660195 5.70884005 1.70680947 7.37446717 0 9 C-0.66 9 -1.32 9 -2 9 C-2.66 7.02 -3.32 5.04 -4 3 C-2.68 3.33 -1.36 3.66 0 4 C0 2.68 0 1.36 0 0 Z " fill="#DBC4AA" transform="translate(247,192)"/>
<path d="M0 0 C0 0.66 0 1.32 0 2 C-1.65 2 -3.3 2 -5 2 C-5 2.66 -5 3.32 -5 4 C-1.7 4 1.6 4 5 4 C5 4.33 5 4.66 5 5 C0.05 5 -4.9 5 -10 5 C-9.67 3.68 -9.34 2.36 -9 1 C-2.25 0 -2.25 0 0 0 Z " fill="#D5C3A8" transform="translate(264,263)"/>
<path d="M0 0 C1.98 0.66 3.96 1.32 6 2 C3.89851796 5.98175544 1.63094642 8.35039045 -2 11 C-1.67 10.484375 -1.34 9.96875 -1 9.4375 C0.32010877 6.21973488 0.13242105 3.4429472 0 0 Z " fill="#D7C5A7" transform="translate(312,298)"/>
<path d="M0 0 C4.4422279 0.50768319 6.6253835 2.15821768 10 5 C10.99 5.33 11.98 5.66 13 6 C13 6.99 13 7.98 13 9 C9.91220974 7.53400783 7.09532795 5.82973607 4.25 3.9375 C3.45078125 3.41027344 2.6515625 2.88304687 1.828125 2.33984375 C1.22484375 1.89769531 0.6215625 1.45554687 0 1 C0 0.67 0 0.34 0 0 Z M7 1 C9 2 9 2 9 2 Z " fill="#D3C9A8" transform="translate(287,267)"/>
<path d="M0 0 C0.33 0 0.66 0 1 0 C1.125 2.375 1.125 2.375 1 5 C0.34 5.66 -0.32 6.32 -1 7 C-1.59834554 8.52056618 -2.13506656 10.06612088 -2.625 11.625 C-3.01558594 12.85089844 -3.01558594 12.85089844 -3.4140625 14.1015625 C-3.60742188 14.72804687 -3.80078125 15.35453125 -4 16 C-4.66 16 -5.32 16 -6 16 C-4.73130765 10.07943568 -2.86034565 5.33931188 0 0 Z " fill="#D8CAAC" transform="translate(217,191)"/>
<path d="M0 0 C0.60328125 0.33773438 1.2065625 0.67546875 1.828125 1.0234375 C2.62734375 1.46945312 3.4265625 1.91546875 4.25 2.375 C5.43335938 3.03628906 5.43335938 3.03628906 6.640625 3.7109375 C8.73914197 4.85747823 10.8536077 5.94649552 13 7 C11.35 7.66 9.7 8.32 8 9 C6.66079162 7.88200014 5.32877444 6.75538103 4 5.625 C2.88625 4.68527344 2.88625 4.68527344 1.75 3.7265625 C1.1725 3.15679687 0.595 2.58703125 0 2 C0 1.34 0 0.68 0 0 Z " fill="#D5C6B1" transform="translate(259,301)"/>
<path d="M0 0 C0.66 0.33 1.32 0.66 2 1 C1.67 1.99 1.34 2.98 1 4 C0.34 3.67 -0.32 3.34 -1 3 C-1 3.99 -1 4.98 -1 6 C-1.66 6 -2.32 6 -3 6 C-3.33 8.97 -3.66 11.94 -4 15 C-4.33 15 -4.66 15 -5 15 C-5.42277492 8.86976372 -4.99795398 5.96715495 -1 1 C-0.67 0.67 -0.34 0.34 0 0 Z " fill="#CCC5B0" transform="translate(266,206)"/>
<path d="M0 0 C1.00496852 3.01490557 1.10335303 5.04181692 1.0625 8.1875 C1.05347656 9.08855469 1.04445312 9.98960937 1.03515625 10.91796875 C1.02355469 11.60503906 1.01195312 12.29210937 1 13 C0.01 13 -0.98 13 -2 13 C-2 9.37 -2 5.74 -2 2 C-1.34 2 -0.68 2 0 2 C0 1.34 0 0.68 0 0 Z " fill="#D7C9B2" transform="translate(201,249)"/>
<path d="M0 0 C3.96 1.98 7.92 3.96 12 6 C8.86650268 7.04449911 8.01031744 6.93423645 5 6 C5 5.34 5 4.68 5 4 C4.01 4 3.02 4 2 4 C2 3.34 2 2.68 2 2 C1.34 2 0.68 2 0 2 C0 1.34 0 0.68 0 0 Z " fill="#D7CCB3" transform="translate(278,239)"/>
<path d="M0 0 C2.27795022 2.27795022 3.05219877 3.93787293 4 7 C3.625 9.3125 3.625 9.3125 3 11 C3 10.01 3 9.02 3 8 C1.68 7.34 0.36 6.68 -1 6 C-1.042721 4.33388095 -1.04063832 2.66617115 -1 1 C-0.67 0.67 -0.34 0.34 0 0 Z " fill="#DCC8AF" transform="translate(272,219)"/>
<path d="M0 0 C0.66 0.66 1.32 1.32 2 2 C0.07423885 4.43929746 -1.80090595 6.80090595 -4 9 C-4.33 6.69 -4.66 4.38 -5 2 C-3.35 2 -1.7 2 0 2 C0 1.34 0 0.68 0 0 Z " fill="#DECAB2" transform="translate(262,202)"/>
<path d="M0 0 C2.0625 0.4375 2.0625 0.4375 4 1 C1.14521674 2.90318884 -0.41941308 3.4619099 -3.6875 4.125 C-4.49574219 4.29257812 -5.30398438 4.46015625 -6.13671875 4.6328125 C-6.75160156 4.75398438 -7.36648438 4.87515625 -8 5 C-8.33 4.34 -8.66 3.68 -9 3 C-8.43410156 2.86722656 -7.86820312 2.73445313 -7.28515625 2.59765625 C-6.18494141 2.33275391 -6.18494141 2.33275391 -5.0625 2.0625 C-4.33160156 1.88847656 -3.60070312 1.71445312 -2.84765625 1.53515625 C-1.00030102 1.16112431 -1.00030102 1.16112431 0 0 Z " fill="#CECAB6" transform="translate(298,313)"/>
<path d="M0 0 C3.37503669 1.1858237 5.64722731 2.27573689 8 5 C5.36 4.67 2.72 4.34 0 4 C0 2.68 0 1.36 0 0 Z " fill="#D9C7AD" transform="translate(292,247)"/>
<path d="M0 0 C0.33 0.66 0.66 1.32 1 2 C1.61875 1.79375 2.2375 1.5875 2.875 1.375 C3.57625 1.25125 4.2775 1.1275 5 1 C5.66 1.66 6.32 2.32 7 3 C6.030625 3.12375 5.06125 3.2475 4.0625 3.375 C3.051875 3.58125 2.04125 3.7875 1 4 C0.67 4.66 0.34 5.32 0 6 C-0.66 5.67 -1.32 5.34 -2 5 C-1.125 1.125 -1.125 1.125 0 0 Z " fill="#D4B592" transform="translate(209,217)"/>
<path d="M0 0 C1.32 0.33 2.64 0.66 4 1 C3.01 1 2.02 1 1 1 C0.67 2.65 0.34 4.3 0 6 C-1.32 6.33 -2.64 6.66 -4 7 C-4 5 -4 5 -2.5625 3.5 C-2.046875 3.005 -1.53125 2.51 -1 2 C-0.67 1.34 -0.34 0.68 0 0 Z " fill="#D3C4AE" transform="translate(310,192)"/>
<path d="M0 0 C0.66 0.33 1.32 0.66 2 1 C1.1875 4.4375 1.1875 4.4375 0 8 C-0.99 8.33 -1.98 8.66 -3 9 C-2.30058404 5.85262818 -1.23921302 2.97411124 0 0 Z " fill="#DDC9B1" transform="translate(221,181)"/>
<path d="M0 0 C0.95465783 2.16967689 1.14401212 3.56328793 0.3984375 5.82421875 C-0.35870385 7.5684743 -1.17609198 9.28627131 -2 11 C-2.66 11 -3.32 11 -4 11 C-2.95902388 7.13351728 -1.96301592 3.50538557 0 0 Z " fill="#DBCBB7" transform="translate(226,169)"/>
<path d="" fill="#000000" transform="translate(0,0)"/>
<path d="" fill="#000000" transform="translate(0,0)"/>
<path d="" fill="#000000" transform="translate(0,0)"/>
<path d="" fill="#000000" transform="translate(0,0)"/>
<path d="" fill="#000000" transform="translate(0,0)"/>
<path d="" fill="#000000" transform="translate(0,0)"/>
<path d="" fill="#000000" transform="translate(0,0)"/>
<path d="" fill="#000000" transform="translate(0,0)"/>
<path d="" fill="#000000" transform="translate(0,0)"/>
<path d="" fill="#000000" transform="translate(0,0)"/>
<path d="" fill="#000000" transform="translate(0,0)"/>
<path d="" fill="#000000" transform="translate(0,0)"/>
<path d="" fill="#000000" transform="translate(0,0)"/>
<path d="" fill="#000000" transform="translate(0,0)"/>
<path d="" fill="#000000" transform="translate(0,0)"/>
<path d="" fill="#000000" transform="translate(0,0)"/>
<path d="" fill="#000000" transform="translate(0,0)"/>
<path d="" fill="#000000" transform="translate(0,0)"/>
<path d="" fill="#000000" transform="translate(0,0)"/>
<path d="" fill="#000000" transform="translate(0,0)"/>
<path d="" fill="#000000" transform="translate(0,0)"/>
<path d="" fill="#000000" transform="translate(0,0)"/>
<path d="" fill="#000000" transform="translate(0,0)"/>
<path d="" fill="#000000" transform="translate(0,0)"/>
<path d="" fill="#000000" transform="translate(0,0)"/>
<path d="" fill="#000000" transform="translate(0,0)"/>
<path d="" fill="#000000" transform="translate(0,0)"/>
<path d="" fill="#000000" transform="translate(0,0)"/>
<path d="" fill="#000000" transform="translate(0,0)"/>
<path d="" fill="#000000" transform="translate(0,0)"/>
<path d="" fill="#000000" transform="translate(0,0)"/>
<path d="" fill="#000000" transform="translate(0,0)"/>
<path d="" fill="#000000" transform="translate(0,0)"/>
<path d="" fill="#000000" transform="translate(0,0)"/>
<path d="" fill="#000000" transform="translate(0,0)"/>
<path d="" fill="#000000" transform="translate(0,0)"/>
<path d="" fill="#000000" transform="translate(0,0)"/>
<path d="" fill="#000000" transform="translate(0,0)"/>
<path d="" fill="#000000" transform="translate(0,0)"/>
<path d="" fill="#000000" transform="translate(0,0)"/>
<path d="" fill="#000000" transform="translate(0,0)"/>
<path d="" fill="#000000" transform="translate(0,0)"/>
<path d="" fill="#000000" transform="translate(0,0)"/>
<path d="" fill="#000000" transform="translate(0,0)"/>
<path d="" fill="#000000" transform="translate(0,0)"/>
<path d="" fill="#000000" transform="translate(0,0)"/>
<path d="" fill="#000000" transform="translate(0,0)"/>
<path d="" fill="#000000" transform="translate(0,0)"/>
<path d="" fill="#000000" transform="translate(0,0)"/>
<path d="" fill="#000000" transform="translate(0,0)"/>
<path d="" fill="#000000" transform="translate(0,0)"/>
<path d="" fill="#000000" transform="translate(0,0)"/>
<path d="" fill="#000000" transform="translate(0,0)"/>
<path d="" fill="#000000" transform="translate(0,0)"/>
<path d="" fill="#000000" transform="translate(0,0)"/>
<path d="" fill="#000000" transform="translate(0,0)"/>
<path d="" fill="#000000" transform="translate(0,0)"/>
<path d="" fill="#000000" transform="translate(0,0)"/>
<path d="" fill="#000000" transform="translate(0,0)"/>
<path d="" fill="#000000" transform="translate(0,0)"/>
<path d="" fill="#000000" transform="translate(0,0)"/>
<path d="" fill="#000000" transform="translate(0,0)"/>
<path d="" fill="#000000" transform="translate(0,0)"/>
<path d="" fill="#000000" transform="translate(0,0)"/>
<path d="" fill="#000000" transform="translate(0,0)"/>
<path d="" fill="#000000" transform="translate(0,0)"/>
<path d="" fill="#000000" transform="translate(0,0)"/>
<path d="" fill="#000000" transform="translate(0,0)"/>
<path d="" fill="#000000" transform="translate(0,0)"/>
<path d="" fill="#000000" transform="translate(0,0)"/>
<path d="" fill="#000000" transform="translate(0,0)"/>
<path d="" fill="#000000" transform="translate(0,0)"/>
<path d="" fill="#000000" transform="translate(0,0)"/>
<path d="" fill="#000000" transform="translate(0,0)"/>
<path d="" fill="#000000" transform="translate(0,0)"/>
<path d="" fill="#000000" transform="translate(0,0)"/>
</svg>
